<svg width="40" height="40" viewBox="0 0 40 40" fill="none" xmlns="http://www.w3.org/2000/svg">
<path d="M8 33L27 14" stroke="#5A5632" stroke-width="4" stroke-linecap="round"/>
<rect x="24" y="8" width="9" height="9" rx="3" fill="#5DF4EB"/>
<path d="M16.7071 8.29289L17.2929 7.70711C17.6834 7.31658 18.3166 7.31658 18.7071 7.70711L19.2929 8.29289C19.6834 8.68342 19.6834 9.31658 19.2929 9.70711L18.7071 10.2929C18.3166 10.6834 17.6834 10.6834 17.2929 10.2929L16.7071 9.70711C16.3166 9.31658 16.3166 8.68342 16.7071 8.29289Z" stroke="#C844E9" stroke-linecap="round"/>
<path d="M32.7071 20.2929L33.2929 19.7071C33.6834 19.3166 34.3166 19.3166 34.7071 19.7071L35.2929 20.2929C35.6834 20.6834 35.6834 21.3166 35.2929 21.7071L34.7071 22.2929C34.3166 22.6834 33.6834 22.6834 33.2929 22.2929L32.7071 21.7071C32.3166 21.3166 32.3166 20.6834 32.7071 20.2929Z" stroke="#C844E9" stroke-linecap="round"/>
<path d="M35.7071 11.2929L36.2929 10.7071C36.6834 10.3166 37.3166 10.3166 37.7071 10.7071L38.2929 11.2929C38.6834 11.6834 38.6834 12.3166 38.2929 12.7071L37.7071 13.2929C37.3166 13.6834 36.6834 13.6834 36.2929 13.2929L35.7071 12.7071C35.3166 12.3166 35.3166 11.6834 35.7071 11.2929Z" stroke="#C844E9" stroke-linecap="round"/>
<path d="M25.7071 2.29289L26.2929 1.70711C26.6834 1.31658 27.3166 1.31658 27.7071 1.70711L28.2929 2.29289C28.6834 2.68342 28.6834 3.31658 28.2929 3.70711L27.7071 4.29289C27.3166 4.68342 26.6834 4.68342 26.2929 4.29289L25.7071 3.70711C25.3166 3.31658 25.3166 2.68342 25.7071 2.29289Z" stroke="#C844E9" stroke-linecap="round"/>
</svg>
